<mxfile host="app.diagrams.net" modified="2023-05-12T09:19:22.440Z" agent="Mozilla/5.0 (Windows NT 10.0; Win64; x64) AppleWebKit/537.36 (KHTML, like Gecko) Chrome/112.0.0.0 Safari/537.36 OPR/98.0.0.0" etag="i6res0NP8OXwmAFAeGFv" version="21.2.9" type="device">
  <diagram name="Stránka-1" id="ZX1lKvB0HTpDntsaDCg8">
    <mxGraphModel dx="1212" dy="704" grid="1" gridSize="10" guides="1" tooltips="1" connect="1" arrows="1" fold="1" page="1" pageScale="1" pageWidth="827" pageHeight="1169" math="0" shadow="0">
      <root>
        <mxCell id="0" />
        <mxCell id="1" parent="0" />
        <mxCell id="lJZ5FruFV0rryDpePXuO-21" style="edgeStyle=orthogonalEdgeStyle;rounded=0;orthogonalLoop=1;jettySize=auto;html=1;exitX=0;exitY=0;exitDx=0;exitDy=0;entryX=0.5;entryY=1;entryDx=0;entryDy=0;" parent="1" source="lJZ5FruFV0rryDpePXuO-19" target="lJZ5FruFV0rryDpePXuO-6" edge="1">
          <mxGeometry relative="1" as="geometry" />
        </mxCell>
        <mxCell id="lJZ5FruFV0rryDpePXuO-19" value="" style="ellipse;whiteSpace=wrap;html=1;fillColor=none;opacity=5;" parent="1" vertex="1">
          <mxGeometry x="353.5" y="900" width="120" height="190" as="geometry" />
        </mxCell>
        <mxCell id="lJZ5FruFV0rryDpePXuO-1" value="Uživatel" style="shape=umlActor;verticalLabelPosition=bottom;verticalAlign=top;html=1;outlineConnect=0;fillColor=none;" parent="1" vertex="1">
          <mxGeometry x="383.5" y="935" width="60" height="120" as="geometry" />
        </mxCell>
        <mxCell id="lJZ5FruFV0rryDpePXuO-14" style="edgeStyle=orthogonalEdgeStyle;rounded=0;orthogonalLoop=1;jettySize=auto;html=1;exitX=1;exitY=0.5;exitDx=0;exitDy=0;entryX=0;entryY=0.5;entryDx=0;entryDy=0;" parent="1" source="lJZ5FruFV0rryDpePXuO-4" target="lJZ5FruFV0rryDpePXuO-6" edge="1">
          <mxGeometry relative="1" as="geometry" />
        </mxCell>
        <mxCell id="lJZ5FruFV0rryDpePXuO-4" value="&lt;font style=&quot;font-size: 17px;&quot;&gt;registrace&lt;/font&gt;" style="ellipse;whiteSpace=wrap;html=1;fillColor=none;" parent="1" vertex="1">
          <mxGeometry x="40" y="710" width="120" height="50" as="geometry" />
        </mxCell>
        <mxCell id="lJZ5FruFV0rryDpePXuO-16" style="edgeStyle=orthogonalEdgeStyle;rounded=0;orthogonalLoop=1;jettySize=auto;html=1;exitX=0.5;exitY=1;exitDx=0;exitDy=0;entryX=0;entryY=0.5;entryDx=0;entryDy=0;" parent="1" source="lJZ5FruFV0rryDpePXuO-7" target="lJZ5FruFV0rryDpePXuO-8" edge="1">
          <mxGeometry relative="1" as="geometry">
            <Array as="points">
              <mxPoint x="370" y="835" />
            </Array>
          </mxGeometry>
        </mxCell>
        <mxCell id="lJZ5FruFV0rryDpePXuO-6" value="&lt;font style=&quot;font-size: 17px;&quot;&gt;přihlášení&lt;/font&gt;" style="ellipse;whiteSpace=wrap;html=1;fillColor=none;" parent="1" vertex="1">
          <mxGeometry x="190" y="710" width="120" height="50" as="geometry" />
        </mxCell>
        <mxCell id="lJZ5FruFV0rryDpePXuO-23" style="edgeStyle=orthogonalEdgeStyle;rounded=0;orthogonalLoop=1;jettySize=auto;html=1;exitX=0.5;exitY=0;exitDx=0;exitDy=0;entryX=0.5;entryY=1;entryDx=0;entryDy=0;" parent="1" source="lJZ5FruFV0rryDpePXuO-8" target="lJZ5FruFV0rryDpePXuO-13" edge="1">
          <mxGeometry relative="1" as="geometry">
            <Array as="points">
              <mxPoint x="580" y="800" />
              <mxPoint x="545" y="800" />
            </Array>
          </mxGeometry>
        </mxCell>
        <mxCell id="lJZ5FruFV0rryDpePXuO-24" style="edgeStyle=orthogonalEdgeStyle;rounded=0;orthogonalLoop=1;jettySize=auto;html=1;exitX=1;exitY=0.5;exitDx=0;exitDy=0;entryX=0.5;entryY=1;entryDx=0;entryDy=0;" parent="1" source="lJZ5FruFV0rryDpePXuO-8" target="lJZ5FruFV0rryDpePXuO-11" edge="1">
          <mxGeometry relative="1" as="geometry" />
        </mxCell>
        <mxCell id="lJZ5FruFV0rryDpePXuO-8" value="&lt;font style=&quot;font-size: 16px;&quot;&gt;hlavní menu&lt;/font&gt;" style="ellipse;whiteSpace=wrap;html=1;fillColor=none;" parent="1" vertex="1">
          <mxGeometry x="520" y="810" width="120" height="50" as="geometry" />
        </mxCell>
        <mxCell id="lJZ5FruFV0rryDpePXuO-29" style="edgeStyle=orthogonalEdgeStyle;rounded=0;orthogonalLoop=1;jettySize=auto;html=1;exitX=1;exitY=0.5;exitDx=0;exitDy=0;entryX=0;entryY=0;entryDx=0;entryDy=0;" parent="1" source="lJZ5FruFV0rryDpePXuO-9" target="lJZ5FruFV0rryDpePXuO-13" edge="1">
          <mxGeometry relative="1" as="geometry">
            <Array as="points">
              <mxPoint x="490" y="650" />
              <mxPoint x="490" y="690" />
              <mxPoint x="506" y="690" />
            </Array>
          </mxGeometry>
        </mxCell>
        <mxCell id="lJZ5FruFV0rryDpePXuO-9" value="&lt;font style=&quot;font-size: 15px;&quot;&gt;vklad&lt;/font&gt;" style="ellipse;whiteSpace=wrap;html=1;fillColor=none;" parent="1" vertex="1">
          <mxGeometry x="407.5" y="635" width="66" height="30" as="geometry" />
        </mxCell>
        <mxCell id="lJZ5FruFV0rryDpePXuO-30" style="edgeStyle=orthogonalEdgeStyle;rounded=0;orthogonalLoop=1;jettySize=auto;html=1;exitX=1;exitY=0.5;exitDx=0;exitDy=0;entryX=0.647;entryY=0.025;entryDx=0;entryDy=0;entryPerimeter=0;" parent="1" source="lJZ5FruFV0rryDpePXuO-10" target="lJZ5FruFV0rryDpePXuO-13" edge="1">
          <mxGeometry relative="1" as="geometry">
            <Array as="points">
              <mxPoint x="590" y="650" />
              <mxPoint x="590" y="680" />
              <mxPoint x="570" y="680" />
              <mxPoint x="570" y="690" />
              <mxPoint x="561" y="690" />
            </Array>
          </mxGeometry>
        </mxCell>
        <mxCell id="lJZ5FruFV0rryDpePXuO-10" value="&lt;font style=&quot;font-size: 15px;&quot;&gt;platba&lt;/font&gt;" style="ellipse;whiteSpace=wrap;html=1;fillColor=none;" parent="1" vertex="1">
          <mxGeometry x="520" y="635" width="66" height="30" as="geometry" />
        </mxCell>
        <mxCell id="lJZ5FruFV0rryDpePXuO-25" style="edgeStyle=orthogonalEdgeStyle;rounded=0;orthogonalLoop=1;jettySize=auto;html=1;exitX=0;exitY=0.5;exitDx=0;exitDy=0;entryX=1;entryY=0;entryDx=0;entryDy=0;" parent="1" source="lJZ5FruFV0rryDpePXuO-11" target="lJZ5FruFV0rryDpePXuO-8" edge="1">
          <mxGeometry relative="1" as="geometry">
            <Array as="points">
              <mxPoint x="622" y="770" />
            </Array>
          </mxGeometry>
        </mxCell>
        <mxCell id="lJZ5FruFV0rryDpePXuO-11" value="&lt;font style=&quot;font-size: 15px;&quot;&gt;vytvoření účtu&lt;/font&gt;" style="ellipse;whiteSpace=wrap;html=1;fillColor=none;" parent="1" vertex="1">
          <mxGeometry x="640" y="750" width="110" height="40" as="geometry" />
        </mxCell>
        <mxCell id="lJZ5FruFV0rryDpePXuO-31" style="edgeStyle=orthogonalEdgeStyle;rounded=0;orthogonalLoop=1;jettySize=auto;html=1;exitX=0;exitY=1;exitDx=0;exitDy=0;entryX=0.983;entryY=0.37;entryDx=0;entryDy=0;entryPerimeter=0;" parent="1" source="lJZ5FruFV0rryDpePXuO-12" target="lJZ5FruFV0rryDpePXuO-13" edge="1">
          <mxGeometry relative="1" as="geometry">
            <Array as="points">
              <mxPoint x="629" y="700" />
              <mxPoint x="598" y="700" />
            </Array>
          </mxGeometry>
        </mxCell>
        <mxCell id="lJZ5FruFV0rryDpePXuO-12" value="&lt;font style=&quot;font-size: 15px;&quot;&gt;výpis z účtu&lt;/font&gt;" style="ellipse;whiteSpace=wrap;html=1;fillColor=none;" parent="1" vertex="1">
          <mxGeometry x="613" y="630" width="110" height="40" as="geometry" />
        </mxCell>
        <mxCell id="lJZ5FruFV0rryDpePXuO-26" style="edgeStyle=orthogonalEdgeStyle;rounded=0;orthogonalLoop=1;jettySize=auto;html=1;exitX=0;exitY=0.5;exitDx=0;exitDy=0;entryX=0.5;entryY=1;entryDx=0;entryDy=0;" parent="1" source="lJZ5FruFV0rryDpePXuO-13" target="lJZ5FruFV0rryDpePXuO-9" edge="1">
          <mxGeometry relative="1" as="geometry" />
        </mxCell>
        <mxCell id="lJZ5FruFV0rryDpePXuO-27" style="edgeStyle=orthogonalEdgeStyle;rounded=0;orthogonalLoop=1;jettySize=auto;html=1;exitX=0.341;exitY=0.014;exitDx=0;exitDy=0;entryX=0.5;entryY=1;entryDx=0;entryDy=0;exitPerimeter=0;" parent="1" source="lJZ5FruFV0rryDpePXuO-13" target="lJZ5FruFV0rryDpePXuO-10" edge="1">
          <mxGeometry relative="1" as="geometry" />
        </mxCell>
        <mxCell id="lJZ5FruFV0rryDpePXuO-28" style="edgeStyle=orthogonalEdgeStyle;rounded=0;orthogonalLoop=1;jettySize=auto;html=1;exitX=1;exitY=0.5;exitDx=0;exitDy=0;entryX=0.5;entryY=1;entryDx=0;entryDy=0;" parent="1" source="lJZ5FruFV0rryDpePXuO-13" target="lJZ5FruFV0rryDpePXuO-12" edge="1">
          <mxGeometry relative="1" as="geometry" />
        </mxCell>
        <mxCell id="lJZ5FruFV0rryDpePXuO-13" value="&lt;font style=&quot;font-size: 15px;&quot;&gt;vybrání účtu&lt;/font&gt;" style="ellipse;whiteSpace=wrap;html=1;fillColor=none;" parent="1" vertex="1">
          <mxGeometry x="490" y="710" width="110" height="40" as="geometry" />
        </mxCell>
        <mxCell id="lJZ5FruFV0rryDpePXuO-20" style="edgeStyle=orthogonalEdgeStyle;rounded=0;orthogonalLoop=1;jettySize=auto;html=1;exitX=0;exitY=0.5;exitDx=0;exitDy=0;entryX=0.5;entryY=1;entryDx=0;entryDy=0;" parent="1" source="lJZ5FruFV0rryDpePXuO-19" target="lJZ5FruFV0rryDpePXuO-4" edge="1">
          <mxGeometry relative="1" as="geometry" />
        </mxCell>
        <mxCell id="MWOmG0fEub2MZmR1nTtn-1" value="" style="edgeStyle=orthogonalEdgeStyle;rounded=0;orthogonalLoop=1;jettySize=auto;html=1;exitX=1;exitY=0.5;exitDx=0;exitDy=0;entryX=0.5;entryY=0;entryDx=0;entryDy=0;" parent="1" source="lJZ5FruFV0rryDpePXuO-6" target="lJZ5FruFV0rryDpePXuO-7" edge="1">
          <mxGeometry relative="1" as="geometry">
            <Array as="points">
              <mxPoint x="370" y="735" />
            </Array>
            <mxPoint x="310" y="735" as="sourcePoint" />
            <mxPoint x="520" y="835" as="targetPoint" />
          </mxGeometry>
        </mxCell>
        <mxCell id="lJZ5FruFV0rryDpePXuO-7" value="&lt;font style=&quot;font-size: 14px;&quot;&gt;dvoufázové ověření&lt;/font&gt;" style="ellipse;whiteSpace=wrap;html=1;fillColor=none;" parent="1" vertex="1">
          <mxGeometry x="310" y="760" width="120" height="50" as="geometry" />
        </mxCell>
        <mxCell id="u4hhTdImzHClAjyILBnP-1" value="ČNB" style="shape=umlActor;verticalLabelPosition=bottom;verticalAlign=top;html=1;outlineConnect=0;fillColor=none;" parent="1" vertex="1">
          <mxGeometry x="675" y="880" width="40" height="80" as="geometry" />
        </mxCell>
        <mxCell id="YzfEbDTFPplLhh9zw83Z-2" value="" style="edgeStyle=orthogonalEdgeStyle;rounded=0;orthogonalLoop=1;jettySize=auto;html=1;exitX=0;exitY=0.5;exitDx=0;exitDy=0;entryX=1;entryY=0.5;entryDx=0;entryDy=0;" edge="1" parent="1" source="u4hhTdImzHClAjyILBnP-2" target="YzfEbDTFPplLhh9zw83Z-1">
          <mxGeometry relative="1" as="geometry">
            <Array as="points">
              <mxPoint x="655" y="930" />
            </Array>
          </mxGeometry>
        </mxCell>
        <mxCell id="u4hhTdImzHClAjyILBnP-2" value="" style="ellipse;whiteSpace=wrap;html=1;fillColor=none;opacity=5;" parent="1" vertex="1">
          <mxGeometry x="654.75" y="870" width="80.5" height="122.5" as="geometry" />
        </mxCell>
        <mxCell id="YzfEbDTFPplLhh9zw83Z-3" style="edgeStyle=orthogonalEdgeStyle;rounded=0;orthogonalLoop=1;jettySize=auto;html=1;exitX=0.5;exitY=0;exitDx=0;exitDy=0;entryX=0.5;entryY=1;entryDx=0;entryDy=0;" edge="1" parent="1" source="YzfEbDTFPplLhh9zw83Z-1" target="lJZ5FruFV0rryDpePXuO-8">
          <mxGeometry relative="1" as="geometry">
            <Array as="points">
              <mxPoint x="558" y="880" />
              <mxPoint x="580" y="880" />
            </Array>
          </mxGeometry>
        </mxCell>
        <mxCell id="YzfEbDTFPplLhh9zw83Z-1" value="&lt;font style=&quot;font-size: 11px;&quot;&gt;získání aktuálních měnových kurzů&lt;/font&gt;" style="ellipse;whiteSpace=wrap;html=1;fillColor=none;" vertex="1" parent="1">
          <mxGeometry x="503" y="900" width="110" height="60" as="geometry" />
        </mxCell>
      </root>
    </mxGraphModel>
  </diagram>
</mxfile>
